<?xml version="1.0" standalone="no"?>
<!DOCTYPE svg PUBLIC "-//W3C//DTD SVG 20010904//EN"
 "http://www.w3.org/TR/2001/REC-SVG-20010904/DTD/svg10.dtd">
<svg version="1.0" xmlns="http://www.w3.org/2000/svg"
 width="700.000000pt" height="700.000000pt" viewBox="0 0 700.000000 700.000000"
 preserveAspectRatio="xMidYMid meet">
<metadata>
Created by potrace 1.11, written by Peter Selinger 2001-2013
</metadata>
<g transform="translate(0.000000,700.000000) scale(0.100000,-0.100000)"
fill="#000000" stroke="none">
<path d="M960 6980 c-126 -24 -216 -54 -327 -111 -322 -165 -544 -467 -618
-840 -14 -70 -13 -294 1 -383 83 -511 505 -914 1018 -971 62 -7 72 -15 20 -15
-21 0 -57 -5 -79 -10 -22 -5 -56 -12 -75 -15 -58 -10 -176 -53 -253 -91 -230
-116 -426 -314 -530 -537 -85 -180 -116 -326 -112 -532 2 -138 31 -309 57
-342 6 -7 8 -13 5 -13 -8 0 38 -110 69 -167 123 -220 286 -379 502 -491 74
-38 200 -86 252 -95 14 -3 36 -8 50 -11 33 -9 77 -14 119 -15 48 -1 36 -8 -29
-16 -419 -49 -788 -331 -943 -720 -64 -163 -82 -258 -82 -440 0 -125 5 -169
29 -280 48 -219 208 -466 411 -636 45 -37 174 -115 230 -139 28 -12 64 -28 80
-35 28 -13 149 -46 220 -61 51 -10 287 -12 355 -3 229 32 460 144 635 308 202
188 321 426 361 721 7 54 14 65 14 24 2 -109 52 -287 118 -419 78 -156 179
-280 317 -389 228 -180 467 -259 760 -251 318 8 587 128 808 359 171 179 294
438 314 666 6 70 13 93 13 43 0 -56 41 -236 72 -317 109 -283 304 -497 573
-631 128 -63 241 -98 377 -115 102 -13 270 -9 348 9 25 5 56 12 70 14 14 3 54
15 89 27 382 129 685 461 770 842 6 24 13 57 16 73 14 59 13 300 0 377 -82
469 -412 826 -875 948 -47 13 -50 13 -145 25 -71 9 -84 15 -29 15 21 0 74 7
116 15 298 57 575 240 743 490 139 206 196 389 200 632 1 79 -2 164 -7 190 -4
27 -11 60 -13 75 -9 49 -56 190 -83 247 -61 132 -175 287 -268 367 -31 27 -62
54 -68 59 -119 110 -387 221 -591 243 -44 5 -64 10 -44 11 59 2 198 31 278 58
183 61 325 151 484 308 52 51 140 177 184 260 38 75 108 255 98 255 -2 0 -1
10 4 23 24 63 35 305 19 427 -31 237 -154 478 -332 656 -171 170 -359 271
-606 324 -86 19 -312 21 -410 3 -497 -87 -870 -464 -959 -971 -11 -62 -20 -92
-21 -72 -2 52 -7 84 -25 161 -93 411 -437 761 -845 862 -112 28 -181 35 -320
33 -208 -4 -385 -54 -568 -162 -184 -109 -344 -280 -442 -475 -44 -86 -95
-233 -104 -300 -4 -24 -8 -53 -10 -64 -3 -11 -5 -35 -5 -54 -1 -45 -12 -33
-16 16 -9 137 -68 320 -147 457 -165 285 -449 491 -774 562 -113 24 -324 26
-444 4z m1396 -1365 c78 -412 382 -759 779 -888 91 -30 109 -34 218 -49 43 -6
76 -12 75 -13 -2 -1 -34 -5 -73 -9 -85 -7 -214 -42 -315 -85 -326 -139 -579
-431 -664 -766 -27 -107 -34 -143 -35 -189 -1 -39 -8 -31 -15 19 -14 85 -17
102 -37 175 -24 91 -24 91 -84 214 -109 223 -291 405 -522 520 -48 24 -110 52
-138 61 -71 24 -223 55 -269 55 -53 0 -41 9 20 14 166 15 361 87 522 193 263
174 456 480 503 798 8 52 15 77 16 60 2 -16 10 -66 19 -110z m2319 75 c28
-194 90 -355 199 -517 108 -159 294 -319 456 -390 30 -14 69 -31 85 -38 43
-20 162 -53 215 -60 109 -15 139 -24 84 -26 -42 -1 -79 -8 -169 -30 -469 -119
-815 -518 -871 -1004 -7 -60 -14 -71 -14 -24 -2 123 -54 300 -132 449 -172
327 -526 570 -881 606 -37 4 -66 8 -65 10 2 1 23 5 48 8 107 15 130 20 220 48
290 92 532 294 682 568 63 116 124 320 127 424 1 40 8 30 16 -24z m-2338
-2132 c-3 -8 -6 -5 -6 6 -1 11 2 17 5 13 3 -3 4 -12 1 -19z m7 -203 c11 -132
71 -310 148 -440 186 -315 522 -536 875 -574 l68 -7 -65 -8 c-399 -49 -737
-286 -914 -642 -44 -88 -90 -222 -102 -299 -3 -22 -8 -47 -9 -55 -2 -8 -4 -35
-4 -59 -1 -56 -7 -50 -15 14 -13 106 -16 123 -40 206 -114 393 -435 704 -828
803 -51 13 -120 27 -153 31 -71 8 -83 15 -29 16 115 4 273 48 406 114 224 112
416 303 528 525 63 127 118 322 120 429 0 45 8 17 14 -54z m2331 9 c51 -400
291 -736 650 -910 136 -66 247 -98 385 -112 l65 -7 -92 -13 c-533 -72 -947
-492 -1008 -1021 -6 -52 -12 -47 -20 16 -4 32 -8 65 -10 73 -75 354 -288 641
-600 807 -133 70 -295 120 -424 129 -53 4 -67 14 -20 15 177 3 432 100 597
225 251 190 425 488 458 782 7 70 11 74 19 16z"/>
</g>
</svg>
